<?xml version="1.0" encoding="UTF-8"?>
<svg version="1.1" xmlns="http://www.w3.org/2000/svg" width="600" height="600">
<path d="M0 0 C32.01 0 64.02 0 97 0 C97 32.34 97 64.68 97 98 C64.99 98 32.98 98 0 98 C0 65.66 0 33.32 0 0 Z M22 18 C22 39.45 22 60.9 22 83 C48.22517243 84.51819393 48.22517243 84.51819393 71 74 C77.43391368 67.42096045 79.14383844 59.0093889 79.4375 50.0625 C79.18986657 40.5595671 76.69347272 32.68231943 70.0625 25.72265625 C56.22598705 14.16602327 39.65497167 18 22 18 Z " fill="#D70D2C" transform="translate(111,252)"/>
<path d="M0 0 C6.27 0 12.54 0 19 0 C21.64 9.57 24.28 19.14 27 29 C29.31 19.43 31.62 9.86 34 0 C39.61 0 45.22 0 51 0 C49.87447692 9.00418468 49.87447692 9.00418468 48.58886719 13.27929688 C48.3047699 14.23388794 48.02067261 15.188479 47.72796631 16.17199707 C47.26707611 17.68013977 47.26707611 17.68013977 46.796875 19.21875 C46.47720764 20.27606323 46.15754028 21.33337646 45.82818604 22.42272949 C45.15239499 24.64923687 44.47310873 26.87468604 43.79052734 29.09912109 C42.75448234 32.48534985 41.73808312 35.87707122 40.72265625 39.26953125 C40.06108821 41.44046789 39.39836578 43.61105314 38.734375 45.78125 C38.43521179 46.78667847 38.13604858 47.79210693 37.82781982 48.82800293 C35.17149333 57.37419383 32.22557732 64.63540795 24 69 C19.11155498 71.17264223 14.28316179 71.62479131 9 71 C7.35 70.34 5.7 69.68 4 69 C4 64.05 4 59.1 4 54 C7.80859375 54.09765625 7.80859375 54.09765625 11.6171875 54.1953125 C14.18806994 54.24324836 14.18806994 54.24324836 16 52 C15.67659074 46.04849844 13.67455176 40.78637989 11.62109375 35.234375 C11.28956802 34.31916077 10.9580423 33.40394653 10.61647034 32.46099854 C9.56318942 29.55496607 8.50115996 26.65224811 7.4375 23.75 C6.37098025 20.83322825 5.30649035 17.91578451 4.24781799 14.99615479 C3.59041316 13.18367256 2.92840115 11.37285343 2.26133728 9.56390381 C1.8157119 8.33682709 1.8157119 8.33682709 1.36108398 7.08496094 C1.0976268 6.36661072 0.83416962 5.6482605 0.56272888 4.90814209 C0 3 0 3 0 0 Z " fill="#161616" transform="translate(385,285)"/>
<path d="M0 0 C6.79996624 6.79996624 6.30100102 15.88790101 6.65625 24.90234375 C6.7696875 25.92457031 6.883125 26.94679688 7 28 C7.99 28.495 7.99 28.495 9 29 C9.02685095 31.47923801 9.04676547 33.9581884 9.0625 36.4375 C9.07087891 37.14455078 9.07925781 37.85160156 9.08789062 38.58007812 C9.09653588 40.38693559 9.05220011 42.19387603 9 44 C7.13748319 45.86251681 4.2496451 45.30214039 1.75 45.375 C-4.38433281 45.36156225 -4.38433281 45.36156225 -6.90234375 43.8828125 C-8.1875 42.5 -8.1875 42.5 -10 40 C-13.25173191 40 -15.36059902 42.22244424 -18 44 C-23.63683363 45.87894454 -29.75837174 45.74720942 -35.375 43.875 C-39.44666495 40.96666789 -42.38678079 37.83965762 -44 33 C-44.39680449 27.74234055 -43.89498146 24.43897158 -41 20 C-34.64655445 13.55757062 -28.78744476 12.2789665 -20 12 C-16.3125 12.4375 -16.3125 12.4375 -14 13 C-14.34786708 11.02463255 -14.34786708 11.02463255 -15 9 C-18.48876522 7.25561739 -22.18539944 7.54531851 -26 8 C-28.49515004 8.88450365 -30.79351542 9.92686497 -33.15234375 11.125 C-35 12 -35 12 -37 12 C-37.70180531 10.5903653 -38.38593958 9.17192359 -39.0625 7.75 C-39.44535156 6.96109375 -39.82820312 6.1721875 -40.22265625 5.359375 C-41.11234493 2.65901338 -41.2655651 1.54735538 -40 -1 C-28.35171351 -7.91000046 -10.80592089 -8.795517 0 0 Z M-24.8046875 24.3515625 C-26.29016301 26.01794898 -26.29016301 26.01794898 -25.75 28.625 C-25.22254355 30.9312407 -25.22254355 30.9312407 -24 32 C-18.62204686 32.36548454 -18.62204686 32.36548454 -14 30 C-13.09533679 26.99032674 -13.09533679 26.99032674 -13 24 C-14.57922406 22.42077594 -16.19443874 22.792341 -18.375 22.75 C-19.16648438 22.72421875 -19.95796875 22.6984375 -20.7734375 22.671875 C-23.07152885 22.82993357 -23.07152885 22.82993357 -24.8046875 24.3515625 Z " fill="#151515" transform="translate(254,290)"/>
<path d="M0 0 C4.54901321 4.4260669 6.05827571 9.75134482 6.22705078 16.00756836 C6.22673922 17.45169887 6.2157465 18.89585778 6.1953125 20.33984375 C6.1924826 21.10680069 6.18965271 21.87375763 6.18673706 22.66395569 C6.17563475 25.08863621 6.15054967 27.51293309 6.125 29.9375 C6.1149573 31.5917915 6.10583372 33.24608885 6.09765625 34.90039062 C6.07743837 38.93385673 6.0382725 42.96650422 6 47 C-0.27 47 -6.54 47 -13 47 C-13.05607422 43.80376953 -13.05607422 43.80376953 -13.11328125 40.54296875 C-13.15950257 38.4776792 -13.21073366 36.41257047 -13.26245117 34.34741211 C-13.29569001 32.91295372 -13.32372535 31.47836487 -13.34643555 30.04370117 C-13.38000271 27.98039193 -13.43231413 25.91827697 -13.48828125 23.85546875 C-13.51446533 22.61434326 -13.54064941 21.37321777 -13.56762695 20.09448242 C-13.73288164 17.00121683 -13.73288164 17.00121683 -15.53198242 15.0715332 C-16.01642822 14.71792725 -16.50087402 14.36432129 -17 14 C-21.16553969 14.92628027 -21.16553969 14.92628027 -24.16943359 17.68457031 C-25.22417285 20.62494276 -25.32568432 23.17417941 -25.4140625 26.296875 C-25.45273437 27.50214844 -25.49140625 28.70742188 -25.53125 29.94921875 C-25.5621875 31.20347656 -25.593125 32.45773437 -25.625 33.75 C-25.66367187 35.01972656 -25.70234375 36.28945313 -25.7421875 37.59765625 C-25.8364394 40.73153181 -25.91930782 43.86574598 -26 47 C-31.94 47 -37.88 47 -44 47 C-44 30.83 -44 14.66 -44 -2 C-38.72 -2 -33.44 -2 -28 -2 C-27.34 -0.68 -26.68 0.64 -26 2 C-24.948125 1.360625 -23.89625 0.72125 -22.8125 0.0625 C-15.29354906 -4.20175474 -7.63031427 -4.17507762 0 0 Z " fill="#0D0D0D" transform="translate(377,287)"/>
<path d="M0 0 C1.75559942 1.75559942 1.13221919 4.03582442 1.13671875 6.37109375 C1.13285156 7.07363281 1.12898438 7.77617187 1.125 8.5 C1.13080078 9.55380859 1.13080078 9.55380859 1.13671875 10.62890625 C1.12661378 15.87338622 1.12661378 15.87338622 0 17 C-2.7692064 17.53670287 -5.54945085 17.9648874 -8.3359375 18.40234375 C-11.2077297 18.87912778 -11.2077297 18.87912778 -14 21 C-14.51184645 24.00414569 -14.51184645 24.00414569 -14.51171875 27.5390625 C-14.54716797 28.84101563 -14.58261719 30.14296875 -14.61914062 31.484375 C-14.64224231 32.86457809 -14.66502464 34.24478657 -14.6875 35.625 C-14.72066445 37.01305352 -14.7551533 38.40107607 -14.79101562 39.7890625 C-14.87373602 43.192416 -14.93853655 46.59619626 -15 50 C-21.27 50 -27.54 50 -34 50 C-34.02464247 43.18237576 -34.04283244 36.3647772 -34.05493164 29.54711914 C-34.05997333 27.22582549 -34.06680651 24.90453503 -34.07543945 22.58325195 C-34.08751225 19.25471205 -34.09322979 15.92621398 -34.09765625 12.59765625 C-34.10281754 11.55287613 -34.10797882 10.50809601 -34.11329651 9.43165588 C-34.11337204 8.47073532 -34.11344757 7.50981476 -34.11352539 6.51977539 C-34.115746 5.66928116 -34.11796661 4.81878693 -34.12025452 3.94252014 C-34 2 -34 2 -33 1 C-30.30345146 0.92680379 -27.63308542 0.90757463 -24.9375 0.9375 C-24.17888672 0.94201172 -23.42027344 0.94652344 -22.63867188 0.95117188 C-20.75908129 0.9629932 -18.87953101 0.98092922 -17 1 C-16.34 2.65 -15.68 4.3 -15 6 C-14.278125 5.38125 -13.55625 4.7625 -12.8125 4.125 C-8.6264823 0.96223107 -5.28145574 -0.44012131 0 0 Z " fill="#191919" transform="translate(328,284)"/>
<path d="M0 0 C6.27 0 12.54 0 19 0 C19 16.17 19 32.34 19 49 C12.73 49 6.46 49 0 49 C0 32.83 0 16.66 0 0 Z " fill="#1B1B1B" transform="translate(268,285)"/>
<path d="M0 0 C14.2 0 14.2 0 19 4 C22.70327663 8.79767778 23.60042636 13.63579068 23.31640625 19.609375 C22.63649982 24.74644578 20.91136915 28.45486564 17.0625 31.875 C11.20790755 35.93737027 7.61732404 35 0 35 C0 23.45 0 11.9 0 0 Z " fill="#D91836" transform="translate(150,285)"/>
<path d="M0 0 C0.79792969 0.00386719 1.59585937 0.00773437 2.41796875 0.01171875 C3.21589844 0.00785156 4.01382812 0.00398438 4.8359375 0 C10.79136108 0.01011108 10.79136108 0.01011108 11.91796875 1.13671875 C11.99117038 3.66949525 12.01024444 6.16775793 11.98046875 8.69921875 C11.95984375 11.15359375 11.93921875 13.60796875 11.91796875 16.13671875 C5.64796875 16.13671875 -0.62203125 16.13671875 -7.08203125 16.13671875 C-7.10265625 13.68234375 -7.12328125 11.22796875 -7.14453125 8.69921875 C-7.15363525 7.92521729 -7.16273926 7.15121582 -7.17211914 6.35375977 C-7.17928038 4.61450158 -7.13227827 2.87526571 -7.08203125 1.13671875 C-5.19650595 -0.74880655 -2.50434294 0.00425186 0 0 Z " fill="#2A2A2A" transform="translate(275.08203125,265.86328125)"/>
<path d="M0 0 C1.32 0 2.64 0 4 0 C4 1.32 4 2.64 4 4 C5.32 4 6.64 4 8 4 C9.4783226 6.95664519 9.06032783 9.74229737 9 13 C7.68 13 6.36 13 5 13 C4.67 11.68 4.34 10.36 4 9 C3.67 10.32 3.34 11.64 3 13 C2.01 13 1.02 13 0 13 C0 8.71 0 4.42 0 0 Z " fill="#818181" transform="translate(430,358)"/>
<path d="M0 0 C2.64 0 5.28 0 8 0 C8.98248524 4.0527516 9.08159574 7.83861737 9 12 C8.01 12 7.02 12 6 12 C6 10.68 6 9.36 6 8 C5.01 8 4.02 8 3 8 C3 9.32 3 10.64 3 12 C2.01 12 1.02 12 0 12 C0 8.04 0 4.08 0 0 Z M3 2 C3 2.99 3 3.98 3 5 C3.99 4.67 4.98 4.34 6 4 C6 3.34 6 2.68 6 2 C5.01 2 4.02 2 3 2 Z " fill="#696969" transform="translate(368,359)"/>
<path d="M0 0 C5.28 0 10.56 0 16 0 C16.66 1.98 17.32 3.96 18 6 C17.67 6.66 17.34 7.32 17 8 C16.34 8 15.68 8 15 8 C15 5.69 15 3.38 15 1 C10.38 1 5.76 1 1 1 C1 16.84 1 32.68 1 49 C0.67 49 0.34 49 0 49 C0 32.83 0 16.66 0 0 Z " fill="#686868" transform="translate(333,285)"/>
<path d="M0 0 C0.99 0 1.98 0 3 0 C3 1.32 3 2.64 3 4 C4.65 4.33 6.3 4.66 8 5 C8 7.64 8 10.28 8 13 C7.01 13 6.02 13 5 13 C5 10.69 5 8.38 5 6 C4.34 6 3.68 6 3 6 C3 8.31 3 10.62 3 13 C2.01 13 1.02 13 0 13 C0 8.71 0 4.42 0 0 Z " fill="#696969" transform="translate(353,358)"/>
<path d="M0 0 C1.98 0 3.96 0 6 0 C7.4783226 2.95664519 7.06032783 5.74229737 7 9 C4.36 9 1.72 9 -1 9 C-2.0326802 6.21176345 -2.04509293 5.1322726 -1.0625 2.25 C-0.711875 1.5075 -0.36125 0.765 0 0 Z M2 5 C3 7 3 7 3 7 Z " fill="#6F6F6F" transform="translate(406,362)"/>
<path d="M0 0 C3.3 0 6.6 0 10 0 C10 0.66 10 1.32 10 2 C9.01 2 8.02 2 7 2 C7 5.3 7 8.6 7 12 C5.68 12 4.36 12 3 12 C3 8.7 3 5.4 3 2 C2.01 2 1.02 2 0 2 C0 1.34 0 0.68 0 0 Z " fill="#737373" transform="translate(323,359)"/>
<path d="M0 0 C2.5625 0.1875 2.5625 0.1875 4.5625 2.1875 C4.5625 3.1775 4.5625 4.1675 4.5625 5.1875 C2.9125 5.1875 1.2625 5.1875 -0.4375 5.1875 C-0.4375 5.8475 -0.4375 6.5075 -0.4375 7.1875 C0.8825 7.1875 2.2025 7.1875 3.5625 7.1875 C3.5625 7.8475 3.5625 8.5075 3.5625 9.1875 C0.6875 9.375 0.6875 9.375 -2.4375 9.1875 C-4.4375 6.1875 -4.4375 6.1875 -4.125 3.5625 C-3.16420807 0.24340062 -3.16420807 0.24340062 0 0 Z " fill="#606060" transform="translate(337.4375,361.8125)"/>
<path d="M0 0 C0.78375 0.04125 1.5675 0.0825 2.375 0.125 C2.705 1.775 3.035 3.425 3.375 5.125 C2.055 5.455 0.735 5.785 -0.625 6.125 C0.695 6.455 2.015 6.785 3.375 7.125 C3.375 7.785 3.375 8.445 3.375 9.125 C0.5 9.25 0.5 9.25 -2.625 9.125 C-4.625 7.125 -4.625 7.125 -4.875 4.625 C-4.51649553 1.03995533 -3.59522993 0.17120143 0 0 Z " fill="#3E3E3E" transform="translate(383.625,361.875)"/>
<path d="M0 0 C1.2065625 0.0309375 1.2065625 0.0309375 2.4375 0.0625 C3.0975 2.3725 3.7575 4.6825 4.4375 7.0625 C2.4375 9.0625 2.4375 9.0625 -0.0625 9.375 C-1.3 9.2203125 -1.3 9.2203125 -2.5625 9.0625 C-3.2225 8.0725 -3.8825 7.0825 -4.5625 6.0625 C-3.9025 5.7325 -3.2425 5.4025 -2.5625 5.0625 C-2.8409375 4.1034375 -2.8409375 4.1034375 -3.125 3.125 C-3.3415625 2.1040625 -3.3415625 2.1040625 -3.5625 1.0625 C-2.5625 0.0625 -2.5625 0.0625 0 0 Z " fill="#555555" transform="translate(392.5625,361.9375)"/>
<path d="M0 0 C1.98 0 3.96 0 6 0 C6.33 0.99 6.66 1.98 7 3 C6.01 3.33 5.02 3.66 4 4 C4 3.34 4 2.68 4 2 C3.34 2 2.68 2 2 2 C2 3.65 2 5.3 2 7 C3.65 6.67 5.3 6.34 7 6 C6.67 6.99 6.34 7.98 6 9 C4.02 9 2.04 9 0 9 C-1.125 6.75 -1.125 6.75 -2 4 C-1.125 1.6875 -1.125 1.6875 0 0 Z " fill="#797979" transform="translate(422,362)"/>
<path d="M0 0 C1.98 0 3.96 0 6 0 C6.33 1.32 6.66 2.64 7 4 C4.525 3.01 4.525 3.01 2 2 C2 3.65 2 5.3 2 7 C3.65 6.67 5.3 6.34 7 6 C6.67 6.99 6.34 7.98 6 9 C3.625 9.125 3.625 9.125 1 9 C0.34 8.34 -0.32 7.68 -1 7 C-0.625 3.375 -0.625 3.375 0 0 Z " fill="#585858" transform="translate(344,362)"/>
<path d="M0 0 C1.98 0 3.96 0 6 0 C6 0.66 6 1.32 6 2 C5.34 2 4.68 2 4 2 C4 4.31 4 6.62 4 9 C2.68 9 1.36 9 0 9 C0 6.03 0 3.06 0 0 Z " fill="#898989" transform="translate(414,362)"/>
<path d="M0 0 C1.98 0 3.96 0 6 0 C4.68 0.33 3.36 0.66 2 1 C2 2.32 2 3.64 2 5 C3.65 5 5.3 5 7 5 C6.67 5.66 6.34 6.32 6 7 C4.68 7 3.36 7 2 7 C2 8.65 2 10.3 2 12 C1.34 12 0.68 12 0 12 C0 8.04 0 4.08 0 0 Z " fill="#323232" transform="translate(368,359)"/>
<path d="M0 0 C0.66 0 1.32 0 2 0 C3.10228696 4.40914783 3.07654536 8.48382401 3 13 C2.01 13 1.02 13 0 13 C0 8.71 0 4.42 0 0 Z " fill="#5D5D5D" transform="translate(353,358)"/>
<path d="M0 0 C1.98 0 3.96 0 6 0 C5.67 0.66 5.34 1.32 5 2 C4.34 2 3.68 2 3 2 C3 4.31 3 6.62 3 9 C2.01 9 1.02 9 0 9 C0 6.03 0 3.06 0 0 Z " fill="#646464" transform="translate(398,362)"/>
<path d="M0 0 C5.28 0 10.56 0 16 0 C16.66 1.98 17.32 3.96 18 6 C17.67 6.66 17.34 7.32 17 8 C16.34 8 15.68 8 15 8 C15 5.69 15 3.38 15 1 C10.05 1 5.1 1 0 1 C0 0.67 0 0.34 0 0 Z " fill="#949494" transform="translate(333,285)"/>
<path d="M0 0 C2 2 2 2 2.125 5.625 C2.08375 6.73875 2.0425 7.8525 2 9 C0.68 9 -0.64 9 -2 9 C-2 6.69 -2 4.38 -2 2 C-1.34 2 -0.68 2 0 2 C0 1.34 0 0.68 0 0 Z " fill="#8C8C8C" transform="translate(437,362)"/>
<path d="M0 0 C0.66 1.32 1.32 2.64 2 4 C3.65 2.68 5.3 1.36 7 0 C7.66 0.33 8.32 0.66 9 1 C7.88121617 2.17262904 6.75476949 3.33795138 5.625 4.5 C4.99851562 5.1496875 4.37203125 5.799375 3.7265625 6.46875 C2 8 2 8 0 8 C0 5.36 0 2.72 0 0 Z " fill="#757575" transform="translate(311,286)"/>
<path d="M0 0 C0.78375 0.04125 1.5675 0.0825 2.375 0.125 C2.705 1.775 3.035 3.425 3.375 5.125 C0.405 4.63 0.405 4.63 -2.625 4.125 C-3.285 5.115 -3.945 6.105 -4.625 7.125 C-4.75 4.75 -4.75 4.75 -4.625 2.125 C-2.625 0.125 -2.625 0.125 0 0 Z " fill="#6F6F6F" transform="translate(383.625,361.875)"/>
<path d="M0 0 C0.66 0.99 1.32 1.98 2 3 C0 5 0 5 -2.5 5.3125 C-3.325 5.209375 -4.15 5.10625 -5 5 C-5.66 4.01 -6.32 3.02 -7 2 C-4.69 1.34 -2.38 0.68 0 0 Z " fill="#6D6D6D" transform="translate(395,366)"/>
<path d="M0 0 C1.98 0 3.96 0 6 0 C6.33 1.32 6.66 2.64 7 4 C4.525 3.01 4.525 3.01 2 2 C2 3.65 2 5.3 2 7 C1.67 7 1.34 7 1 7 C0.67 4.69 0.34 2.38 0 0 Z " fill="#747474" transform="translate(344,362)"/>
<path d="M0 0 C0.99 0.33 1.98 0.66 3 1 C2.0479279 2.00596297 1.08812654 3.00461563 0.125 4 C-0.40867188 4.556875 -0.94234375 5.11375 -1.4921875 5.6875 C-3 7 -3 7 -5 7 C-3.70700306 4.11562221 -2.34058637 2.12780579 0 0 Z " fill="#404040" transform="translate(217,306)"/>
<path d="M0 0 C-0.33 1.32 -0.66 2.64 -1 4 C-1.99 3.67 -2.98 3.34 -4 3 C-3.67 2.34 -3.34 1.68 -3 1 C-3.99 1 -4.98 1 -6 1 C-6.33 1.99 -6.66 2.98 -7 4 C-7 2.68 -7 1.36 -7 0 C-3.98968256 -0.93423645 -3.13349732 -1.04449911 0 0 Z " fill="#838383" transform="translate(377,360)"/>
<path d="M0 0 C2.31 0 4.62 0 7 0 C6.67 0.99 6.34 1.98 6 3 C4.02 3 2.04 3 0 3 C0 2.01 0 1.02 0 0 Z " fill="#606060" transform="translate(422,368)"/>
</svg>
